<?xml version="1.0" encoding="utf-8"?>
<!-- Generator: Adobe Illustrator 16.0.2, SVG Export Plug-In . SVG Version: 6.00 Build 0)  -->
<!DOCTYPE svg PUBLIC "-//W3C//DTD SVG 1.1//EN" "http://www.w3.org/Graphics/SVG/1.1/DTD/svg11.dtd">
<svg version="1.1" id="Layer_1" xmlns="http://www.w3.org/2000/svg" xmlns:xlink="http://www.w3.org/1999/xlink" x="0px" y="0px"
	 width="200px" height="200px" viewBox="0 0 200 200" enable-background="new 0 0 200 200" xml:space="preserve">
<g>
	<path fill="#CE9123" d="M457.697,149.693c4.152,4.152,6.234,9.604,6.234,15.054c0,5.45-2.082,10.892-6.234,15.058
		c-8.316,8.314-21.803,8.314-30.121,0l-21.947-21.951l-21.963,21.951c-4.152,4.164-9.604,6.233-15.053,6.233
		c-5.438,0-10.9-2.069-15.055-6.233c-8.318-8.318-8.318-21.805,0-30.109l21.949-21.963l-21.949-21.947
		c-8.318-8.319-8.318-21.803,0-30.12c8.316-8.307,21.801-8.307,30.107,0l21.961,21.959l21.947-21.959
		c8.318-8.307,21.803-8.307,30.121,0c8.318,8.317,8.318,21.801,0,30.12l-21.961,21.947L457.697,149.693z"/>
	<path fill="#F5D966" d="M460.324,153.93c3.955,3.953,5.939,9.146,5.939,14.336c0,5.188-1.982,10.369-5.939,14.336
		c-7.922,7.92-20.764,7.92-28.686,0l-20.9-20.902l-20.914,20.902c-3.955,3.967-9.145,5.938-14.336,5.938
		c-5.18,0-10.381-1.973-14.336-5.938c-7.922-7.922-7.922-20.764,0-28.672l20.902-20.914l-20.902-20.902
		c-7.922-7.924-7.922-20.763,0-28.684c7.922-7.91,20.762-7.91,28.672,0l20.914,20.912l20.9-20.912c7.922-7.91,20.764-7.91,28.686,0
		c7.922,7.921,7.922,20.76,0,28.684l-20.914,20.9L460.324,153.93z"/>
</g>
<g opacity="0.15">
	
		<image overflow="visible" enable-background="new    " width="1108" height="1120" xlink:href="B0D211F.png"  transform="matrix(0.2384 0 0 0.2387 -456.9673 -390.5366)">
	</image>
</g>
<path fill="#CE9123" d="M-110.021,390.676c-3.055-0.189-6.11-0.376-9.165-0.57c-4.21-0.268-9.315-2.123-12.469,1.785
	c-2.37,2.934-4.005,7.592-3.049,11.315c0.464,1.808,1.493,3.375,2.717,4.759c0.495,0.561,3.557,4.155,4.224,3.994
	c-2.577,0.617-5.177-1.087-7.684-0.169c-3.468,1.271-4.97,5.819-6.228,8.907c-1.39,3.414-0.432,7.957,1.067,11.166
	c2.1,4.494,7.303,4.979,11.464,6.461c-1.09-0.248-2.203-0.127-3.308-0.248c-1.198-0.131-2.585-0.672-3.71,0.035
	c-1.148,0.725-1.253,2.383-1.525,3.576c-0.438,1.93-1.188,3.781-1.237,5.783c-0.041,1.658,0.245,6.895,2.832,6.988l8.124,2.787
	l-1.264,3.684l1.046,4.477l4.284,3.871l8.79,3.02l9.637,0.904l11.901,0.313l13.962-0.697l11.295-0.926l12.693-7.994l3.5-1.199
	l4.201,0.756l0.76,6.777l4.596,2.607l8.197,1.1l4.412,0.141l2.887-1.41l2.27-1.623l1.582-4.604l3.414-60.924l0.992-7.893
	l0.023-4.063l-7.672-2.635l-7.475-0.209l-4.01,0.684l-1.867,2.443l-0.248,4.719l0.086,1.746l-2.367,0.901l-2.148-0.737l-1.947-0.324
	l-2.033-2.069l-5.682-7.438l-6.52-7.728c0,0-6.744-10.761-6.848-10.926c-2.057-3.281-4.908-6.32-5.467-10.349
	c-0.436-3.151-1.205-6.738-0.422-9.889c0.607-2.445,2.93-4.813-0.768-5.742c-4.654-1.173-9.252,1.104-13.568,2.567
	c-1.139,0.387-3.537,5.812-4.047,6.981c-1.737,3.985-0.97,8.367-0.097,12.459c0.59,2.766,3.54,8.256,3.107,10.735
	c-0.228,1.308-0.464,2.613-0.688,3.921c-0.562,3.266-2.763,6.133-3.842,9.276l-8.356-0.81L-110.021,390.676z"/>
<path fill="#CE9123" d="M-649.672-34.356c-3.055-0.19-6.11-0.376-9.165-0.57c-4.21-0.268-9.315-2.123-12.47,1.784
	c-2.369,2.934-4.004,7.592-3.049,11.316c0.465,1.807,1.494,3.375,2.717,4.759c0.496,0.56,3.557,4.155,4.225,3.994
	c-2.577,0.617-5.178-1.087-7.684-0.169c-3.469,1.271-4.971,5.819-6.229,8.908c-1.39,3.413-0.432,7.957,1.067,11.165
	c2.1,4.495,7.304,4.979,11.464,6.462c-1.09-0.248-2.202-0.128-3.308-0.248c-1.198-0.132-2.585-0.673-3.71,0.034
	c-1.148,0.724-1.253,2.384-1.525,3.577c-0.438,1.929-1.188,3.78-1.236,5.782c-0.041,1.659,0.245,6.895,2.832,6.989l8.124,2.787
	l-1.265,3.684l1.047,4.476l4.284,3.872l8.79,3.018l9.637,0.905l11.901,0.312l13.962-0.697l11.295-0.925l12.693-7.994l3.501-1.199
	l4.2,0.755l0.76,6.778l4.596,2.607l8.198,1.099l4.411,0.142l2.887-1.412l2.271-1.622l1.581-4.603l3.414-60.924l0.992-7.893
	l0.024-4.063l-7.673-2.635l-7.475-0.21l-4.009,0.684l-1.868,2.444l-0.248,4.719l0.086,1.745l-2.367,0.902l-2.148-0.737l-1.946-0.324
	l-2.034-2.07l-5.682-7.439l-6.519-7.727c0,0-6.745-10.761-6.848-10.926c-2.057-3.281-4.909-6.32-5.468-10.349
	c-0.436-3.151-1.205-6.737-0.422-9.888c0.607-2.445,2.93-4.812-0.768-5.742c-4.653-1.173-9.252,1.104-13.568,2.567
	c-1.139,0.387-3.537,5.812-4.047,6.982c-1.736,3.985-0.971,8.367-0.097,12.459c0.591,2.765,3.54,8.255,3.106,10.735
	c-0.228,1.308-0.463,2.613-0.688,3.921c-0.562,3.266-2.763,6.133-3.842,9.276l-8.355-0.809L-649.672-34.356z"/>
<path fill="#F5D966" d="M-103.024,397.766c-2.795-0.174-5.59-0.346-8.385-0.521c-3.853-0.246-8.524-1.942-11.41,1.631
	c-2.168,2.687-3.665,6.946-2.789,10.354c0.425,1.654,1.366,3.088,2.486,4.355c0.453,0.512,3.254,3.801,3.864,3.654
	c-2.358,0.564-4.737-0.994-7.031-0.154c-3.173,1.162-4.548,5.324-5.699,8.15c-1.271,3.123-0.395,7.281,0.977,10.217
	c1.922,4.111,6.683,4.557,10.49,5.912c-0.998-0.227-2.015-0.117-3.026-0.227c-1.096-0.121-2.365-0.617-3.395,0.031
	c-1.051,0.658-1.146,2.182-1.396,3.271c-0.401,1.766-1.087,3.459-1.131,5.289c-0.037,1.521,0.224,6.313,2.591,6.396l7.433,2.551
	l-1.156,3.369l0.957,4.096l3.92,3.543l8.042,2.76l8.819,0.83l10.889,0.285l12.773-0.639l10.338-0.846l11.613-7.316l3.203-1.098
	l3.842,0.691l0.697,6.203l4.205,2.385l7.502,1.006l4.035,0.129l2.641-1.291l2.078-1.484l1.447-4.211l3.123-55.746l0.91-7.221
	l0.021-3.719l-7.021-2.408l-6.84-0.193l-3.668,0.625l-1.711,2.238l-0.225,4.316l0.08,1.598l-2.168,0.826l-1.965-0.676l-1.781-0.297
	l-1.861-1.896l-5.197-6.808l-5.967-7.069c0,0-6.172-9.847-6.266-9.996c-1.881-3.002-4.492-5.785-5.002-9.469
	c-0.4-2.886-1.104-6.166-0.387-9.05c0.557-2.235,2.682-4.401-0.703-5.254c-4.258-1.074-8.465,1.01-12.413,2.351
	c-1.042,0.354-3.237,5.317-3.704,6.39c-1.589,3.645-0.887,7.655-0.088,11.399c0.54,2.528,3.24,7.553,2.843,9.821
	c-0.209,1.197-0.425,2.392-0.63,3.588c-0.513,2.988-2.527,5.611-3.515,8.488l-7.646-0.74L-103.024,397.766z"/>
<path fill="#FFFFFF" stroke="#000000" stroke-width="5.000000e-004" stroke-miterlimit="10" d="M-482.514,180.908"/>
<path fill="#F6E699" d="M-477.068,171.413c-0.289,5.14-4.109,9.58-9.391,10.438c-6.12,0.99-11.88-3.148-12.88-9.26
	c-0.06-0.39-0.11-0.789-0.12-1.18c3.67-0.42,7.41-0.631,11.189-0.631C-484.479,170.783-480.738,170.993-477.068,171.413z"/>
<path fill="#F5D966" d="M-477.068,171.413c-0.289,5.14-4.109,9.58-9.391,10.438c-6.12,0.99-11.88-3.148-12.88-9.26
	c-0.06-0.39-0.11-0.789-0.12-1.18c3.67-0.42,7.41-0.631,11.189-0.631C-484.479,170.783-480.738,170.993-477.068,171.413z"/>
<circle fill="#F6E699" cx="-489.766" cy="270.45" r="99.667"/>
<path fill="#F5D966" d="M-522.97,230.078c0.931,5.688,6.287,9.539,11.973,8.609c5.683-0.93,9.537-6.289,8.61-11.972
	c-0.931-5.685-6.29-9.536-11.975-8.606C-520.046,219.038-523.898,224.396-522.97,230.078z"/>
<path fill="#F5D966" d="M-452.286,288.572c0.892,5.449,6.024,9.142,11.474,8.25c5.445-0.891,9.14-6.023,8.25-11.473
	c-0.893-5.445-6.026-9.14-11.475-8.248C-449.484,277.993-453.177,283.129-452.286,288.572z"/>
<path fill="#F5D966" d="M-490.537,347.296c0.891,5.45,6.023,9.144,11.473,8.251c5.446-0.891,9.141-6.023,8.252-11.472
	c-0.894-5.446-6.027-9.142-11.476-8.248C-487.736,336.717-491.428,341.854-490.537,347.296z"/>
<path fill="#F5D966" d="M-554.842,266.088c0.916,5.592,6.181,9.378,11.771,8.465c5.587-0.912,9.375-6.182,8.464-11.77
	c-0.916-5.59-6.184-9.377-11.772-8.461C-551.967,255.232-555.754,260.503-554.842,266.088z"/>
<circle fill="#F5D966" cx="-440.441" cy="251.43" r="6.075"/>
<path fill="#F5D966" d="M-503.249,307.188c0.94,5.746,6.354,9.641,12.1,8.701c5.745-0.938,9.637-6.354,8.702-12.1
	c-0.941-5.744-6.357-9.641-12.101-8.698C-500.294,296.025-504.187,301.443-503.249,307.188z"/>
<path fill="#F5D966" d="M-539.007,248.583c0.987,6.037,6.676,10.127,12.711,9.142c6.033-0.986,10.123-6.675,9.141-12.707
	c-0.99-6.035-6.678-10.125-12.711-9.14C-535.903,236.859-539.991,242.553-539.007,248.583z"/>
<path fill="#F6E699" d="M-547.669,351.299c-0.141,0.021-0.291,0.053-0.43,0.063c-6.591-4.771-12.581-10.32-17.821-16.521
	c0.41-7.189,5.76-13.391,13.17-14.602c8.581-1.398,16.661,4.408,18.071,12.988C-533.28,341.811-539.089,349.896-547.669,351.299z"/>
<path fill="#F5D966" d="M-547.669,351.299c-0.141,0.021-0.291,0.053-0.43,0.063c-6.591-4.771-12.581-10.32-17.821-16.521
	c0.41-7.189,5.76-13.391,13.17-14.602c8.581-1.398,16.661,4.408,18.071,12.988C-533.28,341.811-539.089,349.896-547.669,351.299z"/>
<path fill="#F5D966" d="M-469.95,187.695c0.583,3.564,3.938,5.977,7.502,5.395c3.562-0.582,5.974-3.938,5.396-7.5
	c-0.586-3.563-3.941-5.977-7.502-5.393C-468.118,180.777-470.531,184.139-469.95,187.695z"/>
<path fill="#F5D966" d="M-471.318,301.674c1.299,7.932,8.771,13.301,16.695,12.004c7.928-1.293,13.298-8.766,12.007-16.689
	c-1.3-7.928-8.772-13.301-16.696-12.002C-467.243,286.275-472.609,293.75-471.318,301.674z"/>
<path fill="#F5D966" d="M-584.235,304.604c0.777,4.748,5.249,7.963,9.994,7.188c4.744-0.774,7.959-5.248,7.187-9.992
	c-0.778-4.743-5.251-7.961-9.995-7.185C-581.794,295.391-585.009,299.863-584.235,304.604z"/>
<path fill="#F6E699" d="M-580.296,229.979c-0.16,0.09-0.32,0.189-0.471,0.299c0.09-0.198,0.181-0.389,0.271-0.59
	C-580.427,229.789-580.366,229.891-580.296,229.979z"/>
<path fill="#F5D966" d="M-557.783,239.227c-3.3,0.541-6.561,0.351-9.601-0.449c-0.689,3.449-3.439,6.27-7.119,6.869
	c-4.62,0.75-9-2.279-9.921-6.84c1.021-3.021,2.19-5.971,3.49-8.859c0.15-0.11,0.311-0.211,0.471-0.301
	c-0.07-0.09-0.131-0.189-0.2-0.289c6.18-13.49,15.29-25.36,26.52-34.812c7.839,2.642,14,9.431,15.431,18.17
	C-536.663,225.307-545.192,237.166-557.783,239.227z"/>
<path fill="#F5D966" d="M-486.025,306.563c1.006,6.15,6.805,10.318,12.957,9.314c6.15-1.006,10.317-6.803,9.316-12.953
	c-1.008-6.15-6.807-10.318-12.956-9.313C-482.861,294.613-487.029,300.414-486.025,306.563z"/>
<path fill="#F5D966" d="M-546.4,278.396c2.055,12.563,13.89,21.07,26.448,19.021c12.556-2.052,21.064-13.89,19.021-26.442
	c-2.06-12.558-13.896-21.068-26.451-19.015C-539.942,254.008-548.45,265.85-546.4,278.396z"/>
<g>
	<path fill="#F6E699" d="M-497.698,369.896c-9.199-0.688-18.06-2.64-26.399-5.681c-1.409-0.6-2.8-1.25-4.17-1.93
		c-0.31-4.779,1.45-9.67,5.24-13.199c6.68-6.229,17.14-5.871,23.38,0.82C-494.437,355.488-493.848,363.707-497.698,369.896z"/>
	<path fill="#F6E699" d="M-412.277,332.02c-1.39,2.068-2.88,4.068-4.47,6c-8.319,9.051-18.301,16.539-29.451,22.01
		c-5.438-3.4-9.438-9.039-10.549-15.881c-2.069-12.619,6.5-24.539,19.14-26.602C-426.607,315.748-416.146,322.02-412.277,332.02z"/>
	<path fill="#F5D966" d="M-412.277,332.02c-1.39,2.068-2.88,4.068-4.47,6c-8.319,9.051-18.301,16.539-29.451,22.01
		c-5.438-3.4-9.438-9.039-10.549-15.881c-2.069-12.619,6.5-24.539,19.14-26.602C-426.607,315.748-416.146,322.02-412.277,332.02z"/>
	<path fill="#F5D966" d="M-497.698,369.896c-9.199-0.688-18.06-2.64-26.399-5.681c-1.409-0.6-2.8-1.25-4.17-1.93
		c-0.31-4.779,1.45-9.67,5.24-13.199c6.68-6.229,17.14-5.871,23.38,0.82C-494.437,355.488-493.848,363.707-497.698,369.896z"/>
</g>
<path fill="#F5D966" d="M-403.467,220.168c-2.391,4.16-6.57,7.25-11.68,8.08c-9.021,1.479-17.521-4.63-19-13.648
	c-1.34-8.211,3.6-15.98,11.289-18.422C-415.217,203.1-408.656,211.188-403.467,220.168z"/>
<path fill="#F5D966" d="M-414.466,283.05c0,0,0.487-7.614,7.351-5.799c6.863,1.819,6.92,6.578,4.719,12.905
	c-2.203,6.328-4.244,11.229-9.203,7.719c-4.959-3.508-9.174-5.016-6.471-8.7"/>
<path fill="#F5D966" d="M-464.236,354.479c0.861,5.256,5.813,8.816,11.066,7.955c5.256-0.854,8.814-5.809,7.96-11.063
	c-0.863-5.254-5.813-8.816-11.067-7.955C-461.535,344.271-465.094,349.229-464.236,354.479z"/>
<g>
	<path fill="#CE9123" d="M-440.777,291.363c4.152,4.152,6.235,9.605,6.235,15.054c0,5.451-2.083,10.892-6.235,15.058
		c-8.318,8.314-21.803,8.314-30.121,0l-21.949-21.951l-21.961,21.951c-4.154,4.164-9.604,6.233-15.054,6.233
		c-5.439,0-10.901-2.069-15.054-6.233c-8.318-8.318-8.318-21.805,0-30.108l21.95-21.962l-21.95-21.949
		c-8.318-8.318-8.318-21.803,0-30.12c8.317-8.308,21.801-8.308,30.108,0l21.96,21.959l21.948-21.959
		c8.319-8.308,21.803-8.308,30.121,0c8.318,8.317,8.318,21.802,0,30.12l-21.961,21.947L-440.777,291.363z"/>
	<path fill="#F5D966" d="M-438.15,295.6c3.955,3.953,5.938,9.146,5.938,14.336c0,5.188-1.983,10.369-5.938,14.336
		c-7.922,7.92-20.763,7.92-28.685,0l-20.901-20.902l-20.914,20.902c-3.955,3.967-9.146,5.938-14.336,5.938
		c-5.18,0-10.381-1.973-14.336-5.938c-7.921-7.922-7.921-20.764,0-28.672l20.903-20.914l-20.903-20.902
		c-7.921-7.922-7.921-20.764,0-28.684c7.921-7.91,20.762-7.91,28.672,0l20.914,20.91l20.901-20.91c7.922-7.91,20.763-7.91,28.685,0
		c7.922,7.92,7.922,20.762,0,28.684l-20.914,20.9L-438.15,295.6z"/>
</g>
<path opacity="0.7" fill="#FFFFFF" enable-background="new    " d="M-477.479,174.178c-8.265-1.599-16.152-1.293-17.082,5.547
	c-1.74,12.822,14.889,8.088,21.979,8.648c9.872,0.779,19.496,4.49,27.621,10.077c9.379,6.446,17.051,14.815,23.7,24
	c3.394,4.688,9.333,12.368,13.883,4.315c2.402-4.272-3.173-12.75-5.874-15.652C-430.837,192.193-451.866,179.127-477.479,174.178z"
	/>
<path opacity="0.5" fill="#FFFFFF" enable-background="new    " d="M-410.014,240.659c0,0.927,0.779,2.55,0.574,2.594
	c-0.203,0.044,3.104,3.547,5.566,3.547c3.395,0,6.143-2.75,6.143-6.141c0-1.519-0.551-2.906-1.463-3.979
	c-1.125-1.324-4.533-2.166-4.68-2.164c-0.145,0.002-3.23,0.688-4.342,1.799C-409.328,237.426-410.014,238.962-410.014,240.659z"/>
<image overflow="visible" enable-background="new    " width="200" height="200" xlink:href="B0D211D.png"  transform="matrix(1 0 0 1 -296.0698 -105.9077)">
</image>
<path fill="#F6E699" d="M13.204,57.396c-0.16,0.09-0.32,0.19-0.471,0.3c0.09-0.2,0.181-0.39,0.271-0.59
	C13.073,57.206,13.134,57.306,13.204,57.396z"/>
<path fill="#FFFFFF" stroke="#000000" stroke-width="5.000000e-004" stroke-miterlimit="10" d="M107.586,10.563"/>
<path fill="#F6E699" d="M113.031,1.068c-0.289,5.14-4.109,9.58-9.391,10.44c-6.121,0.99-11.881-3.15-12.881-9.26
	c-0.06-0.39-0.11-0.79-0.12-1.18c3.67-0.42,7.41-0.63,11.189-0.63C105.621,0.438,109.361,0.648,113.031,1.068z"/>
<path fill="#F5D966" d="M113.031,1.068c-0.289,5.14-4.109,9.58-9.391,10.44c-6.121,0.99-11.881-3.15-12.881-9.26
	c-0.06-0.39-0.11-0.79-0.12-1.18c3.67-0.42,7.41-0.63,11.189-0.63C105.621,0.438,109.361,0.648,113.031,1.068z"/>
<circle fill="#F6E699" cx="100.334" cy="100.105" r="99.667"/>
<path fill="#F5D966" d="M171.32,88.654c0.932,5.687,6.287,9.539,11.974,8.61c5.685-0.929,9.537-6.288,8.608-11.971
	c-0.93-5.684-6.289-9.537-11.975-8.607C174.245,77.614,170.395,82.974,171.32,88.654z"/>
<path fill="#F5D966" d="M137.813,118.229c0.893,5.449,6.024,9.142,11.475,8.25c5.445-0.891,9.141-6.023,8.25-11.473
	c-0.893-5.445-6.025-9.141-11.475-8.248C140.615,107.648,136.923,112.784,137.813,118.229z"/>
<path fill="#F5D966" d="M99.563,176.951c0.891,5.449,6.023,9.143,11.473,8.251c5.446-0.89,9.142-6.024,8.252-11.472
	c-0.894-5.446-6.026-9.142-11.476-8.248C102.363,166.372,98.672,171.508,99.563,176.951z"/>
<path fill="#F5D966" d="M35.258,95.743c0.916,5.591,6.181,9.378,11.771,8.465c5.587-0.913,9.375-6.182,8.464-11.77
	c-0.916-5.588-6.184-9.376-11.772-8.461C38.133,84.889,34.346,90.158,35.258,95.743z"/>
<circle fill="#F5D966" cx="123.156" cy="75.415" r="8.575"/>
<path fill="#F5D966" d="M86.851,136.842c0.94,5.746,6.354,9.641,12.101,8.701c5.743-0.938,9.637-6.354,8.7-12.1
	c-0.94-5.743-6.356-9.639-12.1-8.697C89.806,125.682,85.913,131.1,86.851,136.842z"/>
<path fill="#F5D966" d="M48.881,89.22c1.243,7.605,8.41,12.756,16.012,11.514c7.599-1.241,12.752-8.407,11.515-16.007
	c-1.248-7.602-8.413-12.755-16.013-11.512C52.791,74.453,47.641,81.622,48.881,89.22z"/>
<path fill="#F6E699" d="M42.431,180.954c-0.141,0.021-0.291,0.052-0.43,0.062c-6.591-4.771-12.581-10.32-17.821-16.521
	c0.41-7.19,5.76-13.392,13.17-14.603c8.581-1.397,16.661,4.41,18.071,12.989C56.82,171.465,51.011,179.553,42.431,180.954z"/>
<path fill="#F5D966" d="M42.431,180.954c-0.141,0.021-0.291,0.052-0.43,0.062c-6.591-4.771-12.581-10.32-17.821-16.521
	c0.41-7.19,5.76-13.392,13.17-14.603c8.581-1.397,16.661,4.41,18.071,12.989C56.82,171.465,51.011,179.553,42.431,180.954z"/>
<path fill="#F5D966" d="M120.148,17.351c0.584,3.563,3.938,5.976,7.502,5.394c3.563-0.582,5.975-3.939,5.396-7.5
	c-0.586-3.561-3.941-5.976-7.502-5.393C121.98,10.433,119.568,13.792,120.148,17.351z"/>
<path fill="#F5D966" d="M118.781,131.329c1.299,7.931,8.771,13.3,16.695,12.004c7.928-1.293,13.297-8.767,12.006-16.69
	c-1.299-7.928-8.771-13.301-16.695-12.002C122.855,115.932,117.49,123.404,118.781,131.329z"/>
<path fill="#F5D966" d="M5.865,134.26c0.777,4.748,5.249,7.963,9.994,7.188c4.744-0.774,7.959-5.247,7.187-9.991
	c-0.778-4.744-5.251-7.961-9.995-7.185C8.306,125.045,5.091,129.52,5.865,134.26z"/>
<path fill="#F5D966" d="M32.316,68.881c-3.3,0.54-6.561,0.35-9.601-0.45c-0.689,3.45-3.439,6.27-7.119,6.87
	c-4.62,0.75-9-2.28-9.921-6.84c1.021-3.02,2.19-5.97,3.49-8.86c0.15-0.11,0.311-0.21,0.471-0.3c-0.07-0.09-0.131-0.19-0.2-0.29
	c6.18-13.49,15.29-25.36,26.52-34.81c7.839,2.64,14,9.43,15.431,18.17C53.437,54.961,44.908,66.821,32.316,68.881z"/>
<path fill="#F5D966" d="M104.074,136.217c1.006,6.151,6.805,10.319,12.957,9.314c6.15-1.006,10.316-6.803,9.316-12.952
	c-1.009-6.151-6.808-10.319-12.957-9.313C107.238,124.27,103.07,130.068,104.074,136.217z"/>
<path fill="#F5D966" d="M45.68,118.156c2.055,12.563,13.89,21.07,26.448,19.02c12.556-2.051,21.064-13.889,19.021-26.443
	c-2.06-12.556-13.896-21.066-26.451-19.013C52.138,93.767,43.629,105.607,45.68,118.156z"/>
<g>
	<path fill="#F6E699" d="M92.401,199.551c-9.199-0.688-18.06-2.639-26.399-5.68c-1.409-0.6-2.8-1.25-4.17-1.93
		c-0.31-4.779,1.45-9.67,5.24-13.199c6.68-6.23,17.14-5.871,23.38,0.82C95.663,185.145,96.251,193.361,92.401,199.551z"/>
	<path fill="#F6E699" d="M177.822,161.674c-1.391,2.069-2.881,4.069-4.471,6c-8.318,9.051-18.301,16.539-29.451,22.01
		c-5.438-3.399-9.438-9.039-10.549-15.881c-2.068-12.619,6.5-24.539,19.141-26.601C163.492,145.402,173.953,151.674,177.822,161.674
		z"/>
	<path fill="#F5D966" d="M177.822,161.674c-1.391,2.069-2.881,4.069-4.471,6c-8.318,9.051-18.301,16.539-29.451,22.01
		c-5.438-3.399-9.438-9.039-10.549-15.881c-2.068-12.619,6.5-24.539,19.141-26.601C163.492,145.402,173.953,151.674,177.822,161.674
		z"/>
	<path fill="#F5D966" d="M92.401,199.551c-9.199-0.688-18.06-2.639-26.399-5.68c-1.409-0.6-2.8-1.25-4.17-1.93
		c-0.31-4.779,1.45-9.67,5.24-13.199c6.68-6.23,17.14-5.871,23.38,0.82C95.663,185.145,96.251,193.361,92.401,199.551z"/>
</g>
<path fill="#F5D966" d="M186.633,49.823c-2.391,4.16-6.57,7.25-11.68,8.08c-9.021,1.48-17.521-4.63-19-13.65
	c-1.34-8.21,3.6-15.98,11.289-18.42C174.883,32.753,181.443,40.843,186.633,49.823z"/>
<path fill="#F5D966" d="M175.634,112.705c0,0,0.487-7.615,7.351-5.799c6.863,1.82,6.92,6.578,4.72,12.906
	c-2.203,6.328-4.244,11.228-9.203,7.717c-4.959-3.508-9.174-5.014-6.472-8.699"/>
<path fill="#F5D966" d="M125.863,184.135c0.861,5.256,5.813,8.816,11.066,7.955c5.256-0.854,8.813-5.809,7.959-11.063
	c-0.863-5.254-5.813-8.816-11.066-7.955C128.564,173.928,125.006,178.883,125.863,184.135z"/>
<radialGradient id="SVGID_1_" cx="-281.7363" cy="843.2998" r="99.8657" gradientTransform="matrix(1 0 0 1 8.3999 -614.9004)" gradientUnits="userSpaceOnUse">
	<stop  offset="0.5941" style="stop-color:#000000;stop-opacity:0"/>
	<stop  offset="0.7685" style="stop-color:#000000;stop-opacity:0.6512"/>
	<stop  offset="0.8276" style="stop-color:#000000;stop-opacity:0.95"/>
</radialGradient>
<path opacity="0.1" fill="url(#SVGID_1_)" enable-background="new    " d="M-373.201,228.396c0,55.156,44.711,99.869,99.864,99.869
	c55.155,0,99.866-44.713,99.866-99.869c0.002-55.151-44.709-99.862-99.866-99.862C-328.491,128.533-373.201,173.244-373.201,228.396
	z"/>
<g opacity="0.15">
	
		<image overflow="visible" enable-background="new    " width="1087" height="1037" xlink:href="B0D2123.png"  transform="matrix(0.2382 0 0 0.2384 -432.4302 78.2285)">
	</image>
</g>
<g>
	<g>
		<path fill="#CE9123" d="M84.244,171.182c0,0-11.113-47.223-2.144-95.708c0,0,27.05-5.988,38.505,0.684
			c0,0,4.972,5.661,3.709,14.527c0,0,5.231,70.132-1.039,78.417c0,0-19.945,7.254-27.342,5.867
			C95.934,174.969,84.367,171.729,84.244,171.182z"/>
		<path fill="#F5D966" d="M88.424,170.536c0,0-9.917-42.138-1.912-85.41c0,0,24.14-5.343,34.362,0.61c0,0,4.437,5.053,3.31,12.965
			c0,0,4.672,62.588-0.928,69.979c0,0-17.799,6.475-24.399,5.235C98.856,173.915,88.535,171.025,88.424,170.536z"/>
	</g>
	<g>
		<path fill="#CE9123" d="M82.497,33.802c-0.007,0-3.681,1.6-5.003,9.854c-1.323,8.255,5.003,22.707,5.003,22.707l37.411-1.098
			l3.439-11.525C123.348,53.741,132.953,30.875,82.497,33.802z"/>
		<path fill="#F5D966" d="M89.396,38.73c-0.006,0-3.007,1.26-4.088,7.764c-1.081,6.504,4.088,17.89,4.088,17.89l30.568-0.865
			l2.812-9.08C122.775,54.44,130.626,36.424,89.396,38.73z"/>
	</g>
</g>
<g>
	<path opacity="0.7" fill="#FFFFFF" enable-background="new    " d="M275.464-100.408c-8.265-1.598-16.151-1.292-17.082,5.546
		c-1.739,12.824,14.89,8.089,21.979,8.65c9.871,0.781,19.496,4.49,27.621,10.077c9.379,6.448,17.051,14.816,23.699,24
		c3.395,4.688,9.334,12.369,13.883,4.317c2.402-4.274-3.172-12.75-5.873-15.654C322.105-82.391,301.076-95.458,275.464-100.408z"/>
	<path opacity="0.5" fill="#FFFFFF" enable-background="new    " d="M342.93-33.925c0,0.927,0.777,2.55,0.574,2.594
		s3.104,3.547,5.564,3.547c3.396,0,6.145-2.75,6.145-6.141c0-1.517-0.553-2.906-1.465-3.978c-1.125-1.324-4.531-2.167-4.68-2.164
		c-0.145,0.001-3.229,0.687-4.342,1.798C343.615-37.158,342.93-35.623,342.93-33.925z"/>
</g>
<g>
	<g>
		<radialGradient id="SVGID_2_" cx="100.6953" cy="100" r="99.8657" gradientUnits="userSpaceOnUse">
			<stop  offset="0.5941" style="stop-color:#000000;stop-opacity:0"/>
			<stop  offset="0.7685" style="stop-color:#000000;stop-opacity:0.6512"/>
			<stop  offset="0.8276" style="stop-color:#000000;stop-opacity:0.95"/>
		</radialGradient>
		<path opacity="0.1" fill="url(#SVGID_2_)" d="M0.83,99.997c0,55.156,44.711,99.869,99.865,99.869s99.865-44.713,99.865-99.869
			c0-55.152-44.711-99.863-99.865-99.863S0.83,44.845,0.83,99.997z"/>
		<g>
			<g opacity="0.15">
				<image overflow="visible" width="265" height="269" xlink:href="B0D2125.png"  transform="matrix(1 0 0 1 -35.2754 -32.8818)">
				</image>
			</g>
			<g opacity="0.15">
				<image overflow="visible" width="260" height="248" xlink:href="B0D2127.png"  transform="matrix(1 0 0 1 -35.2754 -12.8818)">
				</image>
			</g>
		</g>
	</g>
	<path opacity="0.7" fill="#FFFFFF" d="M112.65,3.728c-8.266-1.598-16.154-1.293-17.082,5.546
		c-1.74,12.823,14.889,8.089,21.979,8.65c9.871,0.781,19.496,4.489,27.621,10.077c9.379,6.447,17.051,14.815,23.699,24
		c3.395,4.688,9.334,12.369,13.883,4.316c2.404-4.273-3.172-12.749-5.873-15.654C159.291,21.744,138.262,8.678,112.65,3.728z"/>
	<path opacity="0.5" fill="#FFFFFF" d="M180.115,70.209c0,0.927,0.779,2.55,0.574,2.595c-0.205,0.043,3.102,3.547,5.566,3.547
		c3.393,0,6.141-2.75,6.141-6.142c0-1.517-0.549-2.905-1.461-3.978c-1.125-1.324-4.535-2.167-4.68-2.164
		c-0.145,0.001-3.23,0.687-4.342,1.799C180.801,66.978,180.115,68.513,180.115,70.209z"/>
</g>
</svg>
